<?xml version="1.0" encoding="UTF-8"?>
<svg id="Layer_1" xmlns="http://www.w3.org/2000/svg" version="1.1" viewBox="0 0 50 50">
  <!-- Generator: Adobe Illustrator 29.8.1, SVG Export Plug-In . SVG Version: 2.1.1 Build 2)  -->
  <defs>
    <style>
      .st0 {
        fill: #dbdbdb;
      }
    </style>
  </defs>
  <path class="st0" d="M21.18,1.3c.78-.05,1.65-.13,2.33.3.65.41.7,1,.78,1.71.51,4.61.67,9.62.9,14.27.08,1.45.32,2.92.2,4.4-.2,2.48-2.36,3-3.85,1.15L10.81,6.2c-.29-1.54,1.2-2.2,2.36-2.73,2.11-.96,5.7-2,8.01-2.17Z"/>
  <path class="st0" d="M30.95,32.32c.43-.07.7.05,1.11.14,2.81.71,6.73,2.07,9.46,3.12,1.21.46,2.15.72,1.9,2.31-.29,1.84-4.19,6.82-5.9,7.56-.59.25-1.17.32-1.73-.04-2.44-3.14-4.31-6.74-6.47-10.1-.54-1.16.42-2.81,1.65-2.99h-.01Z"/>
  <path class="st0" d="M38.83,16.47c1.28,1.23,4.15,5.4,4.33,7.1.13,1.25-.4,1.74-1.5,2.09-3.31,1.07-6.98,1.53-10.31,2.57-1.78.37-3.23-1.41-2.49-3.08l6.61-8.96c1.09-1.36,2.32-.72,3.36.28Z"/>
  <path class="st0" d="M23.07,34.52c1.05-.04,2.12.74,2.21,1.82.28,2.91-.21,6.23,0,9.19-.25,1.59.43,3.7-1.95,3.74-1.9.03-7.28-1.88-8.64-3.25-.9-.91-.7-1.7-.04-2.63,2.02-2.86,4.89-5.45,6.99-8.29.38-.34.9-.57,1.42-.58Z"/>
  <path class="st0" d="M8.89,23.54c.63-.11,1.25.2,1.84.4,3.19,1.11,6.31,2.74,9.5,3.89,1.49.8,1.44,3.14-.11,3.85-3.2.91-6.32,2.15-9.54,3.04-1.07.3-2.16.8-2.98-.28-1.04-1.4-.78-6.3-.45-8.04.18-1.01.5-2.67,1.73-2.87h0Z"/>
</svg>